<svg
  width="1384"
  height="285"
  viewBox="0 0 1384 285"
  fill="none"
  xmlns="http://www.w3.org/2000/svg"
>
  <path d="M692.541 32V253.72H691.541V32H692.541Z" fill="url(#paint0_linear_1331_5362)" />
  <path
    d="M632.582 32.7763L644.142 252.336L645.141 252.284L633.581 32.7237L632.582 32.7763Z"
    fill="url(#paint1_linear_1331_5362)"
  />
  <path
    d="M596.734 250.943L573.624 33.5629L574.619 33.4572L597.729 250.837L596.734 250.943Z"
    fill="url(#paint2_linear_1331_5362)"
  />
  <path
    d="M514.658 34.3395L549.328 249.56L550.315 249.4L515.645 34.1805L514.658 34.3395Z"
    fill="url(#paint3_linear_1331_5362)"
  />
  <path
    d="M501.923 248.176L455.703 35.116L456.68 34.904L502.9 247.964L501.923 248.176Z"
    fill="url(#paint4_linear_1331_5362)"
  />
  <path
    d="M396.739 35.8921L454.519 246.782L455.483 246.518L397.703 35.6279L396.739 35.8921Z"
    fill="url(#paint5_linear_1331_5362)"
  />
  <path
    d="M407.117 245.398L337.787 36.6776L338.736 36.3624L408.066 245.082L407.117 245.398Z"
    fill="url(#paint6_linear_1331_5362)"
  />
  <path
    d="M278.826 37.4523L359.716 244.012L360.647 243.648L279.757 37.0877L278.826 37.4523Z"
    fill="url(#paint7_linear_1331_5362)"
  />
  <path
    d="M312.316 242.616L219.876 38.2261L220.787 37.814L313.227 242.204L312.316 242.616Z"
    fill="url(#paint8_linear_1331_5362)"
  />
  <path
    d="M160.917 38.9987L264.917 241.229L265.806 240.771L161.806 38.5414L160.917 38.9987Z"
    fill="url(#paint9_linear_1331_5362)"
  />
  <path
    d="M232.954 262.02L103.454 79.6795L104.269 79.1005L233.769 261.44L232.954 262.02Z"
    fill="url(#paint10_linear_1331_5362)"
  />
  <path
    d="M201 282.795L46 120.345L46.7235 119.655L201.724 282.105L201 282.795Z"
    fill="url(#paint11_linear_1331_5362)"
  />
  <path
    d="M1183.08 282.795L1338.08 120.345L1337.36 119.655L1182.36 282.105L1183.08 282.795Z"
    fill="url(#paint12_linear_1331_5362)"
  />
  <path
    d="M1280.63 79.6795L1151.13 262.02L1150.31 261.44L1279.81 79.1005L1280.63 79.6795Z"
    fill="url(#paint13_linear_1331_5362)"
  />
  <path
    d="M1119.17 241.229L1223.17 38.9987L1222.28 38.5414L1118.28 240.771L1119.17 241.229Z"
    fill="url(#paint14_linear_1331_5362)"
  />
  <path
    d="M1164.21 38.2261L1071.77 242.616L1070.86 242.204L1163.3 37.814L1164.21 38.2261Z"
    fill="url(#paint15_linear_1331_5362)"
  />
  <path
    d="M1024.37 244.012L1105.26 37.4523L1104.33 37.0877L1023.44 243.648L1024.37 244.012Z"
    fill="url(#paint16_linear_1331_5362)"
  />
  <path
    d="M1046.3 36.6776L976.966 245.398L976.017 245.082L1045.35 36.3624L1046.3 36.6776Z"
    fill="url(#paint17_linear_1331_5362)"
  />
  <path
    d="M929.564 246.782L987.344 35.8921L986.38 35.6279L928.6 246.518L929.564 246.782Z"
    fill="url(#paint18_linear_1331_5362)"
  />
  <path
    d="M928.38 35.116L882.16 248.176L881.182 247.964L927.402 34.904L928.38 35.116Z"
    fill="url(#paint19_linear_1331_5362)"
  />
  <path
    d="M834.755 249.56L869.425 34.3395L868.437 34.1805L833.767 249.4L834.755 249.56Z"
    fill="url(#paint20_linear_1331_5362)"
  />
  <path
    d="M810.459 33.5629L787.349 250.943L786.354 250.837L809.464 33.4572L810.459 33.5629Z"
    fill="url(#paint21_linear_1331_5362)"
  />
  <path
    d="M739.941 252.336L751.501 32.7763L750.502 32.7237L738.942 252.284L739.941 252.336Z"
    fill="url(#paint22_linear_1331_5362)"
  />
  <path
    d="M692.541 32V253.72H691.541V32H692.541Z"
    stroke="url(#paint23_linear_1331_5362)"
    stroke-width="2"
    stroke-miterlimit="10"
  />
  <path
    d="M632.582 32.7763L644.142 252.336L645.141 252.284L633.581 32.7237L632.582 32.7763Z"
    stroke="url(#paint24_linear_1331_5362)"
    stroke-width="2"
    stroke-miterlimit="10"
  />
  <path
    d="M596.734 250.943L573.624 33.5629L574.619 33.4572L597.729 250.837L596.734 250.943Z"
    stroke="url(#paint25_linear_1331_5362)"
    stroke-width="2"
    stroke-miterlimit="10"
  />
  <path
    d="M514.658 34.3395L549.328 249.56L550.315 249.4L515.645 34.1805L514.658 34.3395Z"
    stroke="url(#paint26_linear_1331_5362)"
    stroke-width="2"
    stroke-miterlimit="10"
  />
  <path
    d="M501.923 248.176L455.703 35.116L456.68 34.904L502.9 247.964L501.923 248.176Z"
    stroke="url(#paint27_linear_1331_5362)"
    stroke-width="2"
    stroke-miterlimit="10"
  />
  <path
    d="M396.739 35.8921L454.519 246.782L455.483 246.518L397.703 35.6279L396.739 35.8921Z"
    stroke="url(#paint28_linear_1331_5362)"
    stroke-width="2"
    stroke-miterlimit="10"
  />
  <path
    d="M407.117 245.398L337.787 36.6776L338.736 36.3624L408.066 245.082L407.117 245.398Z"
    stroke="url(#paint29_linear_1331_5362)"
    stroke-width="2"
    stroke-miterlimit="10"
  />
  <path
    d="M278.826 37.4523L359.716 244.012L360.647 243.648L279.757 37.0877L278.826 37.4523Z"
    stroke="url(#paint30_linear_1331_5362)"
    stroke-width="2"
    stroke-miterlimit="10"
  />
  <path
    d="M312.316 242.616L219.876 38.2261L220.787 37.814L313.227 242.204L312.316 242.616Z"
    stroke="url(#paint31_linear_1331_5362)"
    stroke-width="2"
    stroke-miterlimit="10"
  />
  <path
    d="M160.917 38.9987L264.917 241.229L265.806 240.771L161.806 38.5414L160.917 38.9987Z"
    stroke="url(#paint32_linear_1331_5362)"
    stroke-width="2"
    stroke-miterlimit="10"
  />
  <path
    d="M232.954 262.02L103.454 79.6795L104.269 79.1005L233.769 261.44L232.954 262.02Z"
    stroke="url(#paint33_linear_1331_5362)"
    stroke-width="2"
    stroke-miterlimit="10"
  />
  <path
    d="M201 282.795L46 120.345L46.7235 119.655L201.724 282.105L201 282.795Z"
    stroke="url(#paint34_linear_1331_5362)"
    stroke-width="2"
    stroke-miterlimit="10"
  />
  <path
    d="M1183.08 282.795L1338.08 120.345L1337.36 119.655L1182.36 282.105L1183.08 282.795Z"
    stroke="url(#paint35_linear_1331_5362)"
    stroke-width="2"
    stroke-miterlimit="10"
  />
  <path
    d="M1280.63 79.6795L1151.13 262.02L1150.31 261.44L1279.81 79.1005L1280.63 79.6795Z"
    stroke="url(#paint36_linear_1331_5362)"
    stroke-width="2"
    stroke-miterlimit="10"
  />
  <path
    d="M1119.17 241.229L1223.17 38.9987L1222.28 38.5414L1118.28 240.771L1119.17 241.229Z"
    stroke="url(#paint37_linear_1331_5362)"
    stroke-width="2"
    stroke-miterlimit="10"
  />
  <path
    d="M1164.21 38.2261L1071.77 242.616L1070.86 242.204L1163.3 37.814L1164.21 38.2261Z"
    stroke="url(#paint38_linear_1331_5362)"
    stroke-width="2"
    stroke-miterlimit="10"
  />
  <path
    d="M1024.37 244.012L1105.26 37.4523L1104.33 37.0877L1023.44 243.648L1024.37 244.012Z"
    stroke="url(#paint39_linear_1331_5362)"
    stroke-width="2"
    stroke-miterlimit="10"
  />
  <path
    d="M1046.3 36.6776L976.966 245.398L976.017 245.082L1045.35 36.3624L1046.3 36.6776Z"
    stroke="url(#paint40_linear_1331_5362)"
    stroke-width="2"
    stroke-miterlimit="10"
  />
  <path
    d="M929.564 246.782L987.344 35.8921L986.38 35.6279L928.6 246.518L929.564 246.782Z"
    stroke="url(#paint41_linear_1331_5362)"
    stroke-width="2"
    stroke-miterlimit="10"
  />
  <path
    d="M928.38 35.116L882.16 248.176L881.182 247.964L927.402 34.904L928.38 35.116Z"
    stroke="url(#paint42_linear_1331_5362)"
    stroke-width="2"
    stroke-miterlimit="10"
  />
  <path
    d="M834.755 249.56L869.425 34.3395L868.437 34.1805L833.767 249.4L834.755 249.56Z"
    stroke="url(#paint43_linear_1331_5362)"
    stroke-width="2"
    stroke-miterlimit="10"
  />
  <path
    d="M810.459 33.5629L787.349 250.943L786.354 250.837L809.464 33.4572L810.459 33.5629Z"
    stroke="url(#paint44_linear_1331_5362)"
    stroke-width="2"
    stroke-miterlimit="10"
  />
  <path
    d="M739.941 252.336L751.501 32.7763L750.502 32.7237L738.942 252.284L739.941 252.336Z"
    stroke="url(#paint45_linear_1331_5362)"
    stroke-width="2"
    stroke-miterlimit="10"
  />
  <path
    d="M0 115L96.5266 22.2995C111.426 7.99072 131.283 0 151.94 0H1232.06C1252.72 0 1272.57 7.99072 1287.47 22.2995L1384 115L1269.9 28.9072C1259.49 21.0523 1246.8 16.8032 1233.76 16.8032H150.242C137.201 16.8032 124.514 21.0523 114.104 28.9071L0 115Z"
    fill="#12E2FF"
  />
  <defs>
    <linearGradient
      id="paint0_linear_1331_5362"
      x1="692.041"
      y1="32"
      x2="692.041"
      y2="162"
      gradientUnits="userSpaceOnUse"
    >
      <stop stop-color="#12E2FF" />
      <stop offset="1" stop-color="#12E2FF" stop-opacity="0" />
    </linearGradient>
    <linearGradient
      id="paint1_linear_1331_5362"
      x1="692.041"
      y1="32"
      x2="692.041"
      y2="162"
      gradientUnits="userSpaceOnUse"
    >
      <stop stop-color="#12E2FF" />
      <stop offset="1" stop-color="#12E2FF" stop-opacity="0" />
    </linearGradient>
    <linearGradient
      id="paint2_linear_1331_5362"
      x1="692.041"
      y1="32"
      x2="692.041"
      y2="162"
      gradientUnits="userSpaceOnUse"
    >
      <stop stop-color="#12E2FF" />
      <stop offset="1" stop-color="#12E2FF" stop-opacity="0" />
    </linearGradient>
    <linearGradient
      id="paint3_linear_1331_5362"
      x1="692.041"
      y1="32"
      x2="692.041"
      y2="162"
      gradientUnits="userSpaceOnUse"
    >
      <stop stop-color="#12E2FF" />
      <stop offset="1" stop-color="#12E2FF" stop-opacity="0" />
    </linearGradient>
    <linearGradient
      id="paint4_linear_1331_5362"
      x1="692.041"
      y1="32"
      x2="692.041"
      y2="162"
      gradientUnits="userSpaceOnUse"
    >
      <stop stop-color="#12E2FF" />
      <stop offset="1" stop-color="#12E2FF" stop-opacity="0" />
    </linearGradient>
    <linearGradient
      id="paint5_linear_1331_5362"
      x1="692.041"
      y1="32"
      x2="692.041"
      y2="162"
      gradientUnits="userSpaceOnUse"
    >
      <stop stop-color="#12E2FF" />
      <stop offset="1" stop-color="#12E2FF" stop-opacity="0" />
    </linearGradient>
    <linearGradient
      id="paint6_linear_1331_5362"
      x1="692.041"
      y1="32"
      x2="692.041"
      y2="162"
      gradientUnits="userSpaceOnUse"
    >
      <stop stop-color="#12E2FF" />
      <stop offset="1" stop-color="#12E2FF" stop-opacity="0" />
    </linearGradient>
    <linearGradient
      id="paint7_linear_1331_5362"
      x1="692.041"
      y1="32"
      x2="692.041"
      y2="162"
      gradientUnits="userSpaceOnUse"
    >
      <stop stop-color="#12E2FF" />
      <stop offset="1" stop-color="#12E2FF" stop-opacity="0" />
    </linearGradient>
    <linearGradient
      id="paint8_linear_1331_5362"
      x1="692.041"
      y1="32"
      x2="692.041"
      y2="162"
      gradientUnits="userSpaceOnUse"
    >
      <stop stop-color="#12E2FF" />
      <stop offset="1" stop-color="#12E2FF" stop-opacity="0" />
    </linearGradient>
    <linearGradient
      id="paint9_linear_1331_5362"
      x1="692.041"
      y1="32"
      x2="692.041"
      y2="162"
      gradientUnits="userSpaceOnUse"
    >
      <stop stop-color="#12E2FF" />
      <stop offset="1" stop-color="#12E2FF" stop-opacity="0" />
    </linearGradient>
    <linearGradient
      id="paint10_linear_1331_5362"
      x1="692.041"
      y1="32"
      x2="692.041"
      y2="162"
      gradientUnits="userSpaceOnUse"
    >
      <stop stop-color="#12E2FF" />
      <stop offset="1" stop-color="#12E2FF" stop-opacity="0" />
    </linearGradient>
    <linearGradient
      id="paint11_linear_1331_5362"
      x1="692.041"
      y1="32"
      x2="692.041"
      y2="162"
      gradientUnits="userSpaceOnUse"
    >
      <stop stop-color="#12E2FF" />
      <stop offset="1" stop-color="#12E2FF" stop-opacity="0" />
    </linearGradient>
    <linearGradient
      id="paint12_linear_1331_5362"
      x1="692.041"
      y1="32"
      x2="692.041"
      y2="162"
      gradientUnits="userSpaceOnUse"
    >
      <stop stop-color="#12E2FF" />
      <stop offset="1" stop-color="#12E2FF" stop-opacity="0" />
    </linearGradient>
    <linearGradient
      id="paint13_linear_1331_5362"
      x1="692.041"
      y1="32"
      x2="692.041"
      y2="162"
      gradientUnits="userSpaceOnUse"
    >
      <stop stop-color="#12E2FF" />
      <stop offset="1" stop-color="#12E2FF" stop-opacity="0" />
    </linearGradient>
    <linearGradient
      id="paint14_linear_1331_5362"
      x1="692.041"
      y1="32"
      x2="692.041"
      y2="162"
      gradientUnits="userSpaceOnUse"
    >
      <stop stop-color="#12E2FF" />
      <stop offset="1" stop-color="#12E2FF" stop-opacity="0" />
    </linearGradient>
    <linearGradient
      id="paint15_linear_1331_5362"
      x1="692.041"
      y1="32"
      x2="692.041"
      y2="162"
      gradientUnits="userSpaceOnUse"
    >
      <stop stop-color="#12E2FF" />
      <stop offset="1" stop-color="#12E2FF" stop-opacity="0" />
    </linearGradient>
    <linearGradient
      id="paint16_linear_1331_5362"
      x1="692.041"
      y1="32"
      x2="692.041"
      y2="162"
      gradientUnits="userSpaceOnUse"
    >
      <stop stop-color="#12E2FF" />
      <stop offset="1" stop-color="#12E2FF" stop-opacity="0" />
    </linearGradient>
    <linearGradient
      id="paint17_linear_1331_5362"
      x1="692.041"
      y1="32"
      x2="692.041"
      y2="162"
      gradientUnits="userSpaceOnUse"
    >
      <stop stop-color="#12E2FF" />
      <stop offset="1" stop-color="#12E2FF" stop-opacity="0" />
    </linearGradient>
    <linearGradient
      id="paint18_linear_1331_5362"
      x1="692.041"
      y1="32"
      x2="692.041"
      y2="162"
      gradientUnits="userSpaceOnUse"
    >
      <stop stop-color="#12E2FF" />
      <stop offset="1" stop-color="#12E2FF" stop-opacity="0" />
    </linearGradient>
    <linearGradient
      id="paint19_linear_1331_5362"
      x1="692.041"
      y1="32"
      x2="692.041"
      y2="162"
      gradientUnits="userSpaceOnUse"
    >
      <stop stop-color="#12E2FF" />
      <stop offset="1" stop-color="#12E2FF" stop-opacity="0" />
    </linearGradient>
    <linearGradient
      id="paint20_linear_1331_5362"
      x1="692.041"
      y1="32"
      x2="692.041"
      y2="162"
      gradientUnits="userSpaceOnUse"
    >
      <stop stop-color="#12E2FF" />
      <stop offset="1" stop-color="#12E2FF" stop-opacity="0" />
    </linearGradient>
    <linearGradient
      id="paint21_linear_1331_5362"
      x1="692.041"
      y1="32"
      x2="692.041"
      y2="162"
      gradientUnits="userSpaceOnUse"
    >
      <stop stop-color="#12E2FF" />
      <stop offset="1" stop-color="#12E2FF" stop-opacity="0" />
    </linearGradient>
    <linearGradient
      id="paint22_linear_1331_5362"
      x1="692.041"
      y1="32"
      x2="692.041"
      y2="162"
      gradientUnits="userSpaceOnUse"
    >
      <stop stop-color="#12E2FF" />
      <stop offset="1" stop-color="#12E2FF" stop-opacity="0" />
    </linearGradient>
    <linearGradient
      id="paint23_linear_1331_5362"
      x1="692.041"
      y1="32"
      x2="692.041"
      y2="122"
      gradientUnits="userSpaceOnUse"
    >
      <stop stop-color="#12E2FF" />
      <stop offset="1" stop-color="#12E2FF" stop-opacity="0" />
    </linearGradient>
    <linearGradient
      id="paint24_linear_1331_5362"
      x1="692.041"
      y1="32"
      x2="692.041"
      y2="122"
      gradientUnits="userSpaceOnUse"
    >
      <stop stop-color="#12E2FF" />
      <stop offset="1" stop-color="#12E2FF" stop-opacity="0" />
    </linearGradient>
    <linearGradient
      id="paint25_linear_1331_5362"
      x1="692.041"
      y1="32"
      x2="692.041"
      y2="122"
      gradientUnits="userSpaceOnUse"
    >
      <stop stop-color="#12E2FF" />
      <stop offset="1" stop-color="#12E2FF" stop-opacity="0" />
    </linearGradient>
    <linearGradient
      id="paint26_linear_1331_5362"
      x1="692.041"
      y1="32"
      x2="692.041"
      y2="122"
      gradientUnits="userSpaceOnUse"
    >
      <stop stop-color="#12E2FF" />
      <stop offset="1" stop-color="#12E2FF" stop-opacity="0" />
    </linearGradient>
    <linearGradient
      id="paint27_linear_1331_5362"
      x1="692.041"
      y1="32"
      x2="692.041"
      y2="122"
      gradientUnits="userSpaceOnUse"
    >
      <stop stop-color="#12E2FF" />
      <stop offset="1" stop-color="#12E2FF" stop-opacity="0" />
    </linearGradient>
    <linearGradient
      id="paint28_linear_1331_5362"
      x1="692.041"
      y1="32"
      x2="692.041"
      y2="122"
      gradientUnits="userSpaceOnUse"
    >
      <stop stop-color="#12E2FF" />
      <stop offset="1" stop-color="#12E2FF" stop-opacity="0" />
    </linearGradient>
    <linearGradient
      id="paint29_linear_1331_5362"
      x1="692.041"
      y1="32"
      x2="692.041"
      y2="122"
      gradientUnits="userSpaceOnUse"
    >
      <stop stop-color="#12E2FF" />
      <stop offset="1" stop-color="#12E2FF" stop-opacity="0" />
    </linearGradient>
    <linearGradient
      id="paint30_linear_1331_5362"
      x1="692.041"
      y1="32"
      x2="692.041"
      y2="122"
      gradientUnits="userSpaceOnUse"
    >
      <stop stop-color="#12E2FF" />
      <stop offset="1" stop-color="#12E2FF" stop-opacity="0" />
    </linearGradient>
    <linearGradient
      id="paint31_linear_1331_5362"
      x1="692.041"
      y1="32"
      x2="692.041"
      y2="122"
      gradientUnits="userSpaceOnUse"
    >
      <stop stop-color="#12E2FF" />
      <stop offset="1" stop-color="#12E2FF" stop-opacity="0" />
    </linearGradient>
    <linearGradient
      id="paint32_linear_1331_5362"
      x1="692.041"
      y1="32"
      x2="692.041"
      y2="122"
      gradientUnits="userSpaceOnUse"
    >
      <stop stop-color="#12E2FF" />
      <stop offset="1" stop-color="#12E2FF" stop-opacity="0" />
    </linearGradient>
    <linearGradient
      id="paint33_linear_1331_5362"
      x1="692.041"
      y1="32"
      x2="692.041"
      y2="122"
      gradientUnits="userSpaceOnUse"
    >
      <stop stop-color="#12E2FF" />
      <stop offset="1" stop-color="#12E2FF" stop-opacity="0" />
    </linearGradient>
    <linearGradient
      id="paint34_linear_1331_5362"
      x1="692.041"
      y1="32"
      x2="692.041"
      y2="122"
      gradientUnits="userSpaceOnUse"
    >
      <stop stop-color="#12E2FF" />
      <stop offset="1" stop-color="#12E2FF" stop-opacity="0" />
    </linearGradient>
    <linearGradient
      id="paint35_linear_1331_5362"
      x1="692.041"
      y1="32"
      x2="692.041"
      y2="122"
      gradientUnits="userSpaceOnUse"
    >
      <stop stop-color="#12E2FF" />
      <stop offset="1" stop-color="#12E2FF" stop-opacity="0" />
    </linearGradient>
    <linearGradient
      id="paint36_linear_1331_5362"
      x1="692.041"
      y1="32"
      x2="692.041"
      y2="122"
      gradientUnits="userSpaceOnUse"
    >
      <stop stop-color="#12E2FF" />
      <stop offset="1" stop-color="#12E2FF" stop-opacity="0" />
    </linearGradient>
    <linearGradient
      id="paint37_linear_1331_5362"
      x1="692.041"
      y1="32"
      x2="692.041"
      y2="122"
      gradientUnits="userSpaceOnUse"
    >
      <stop stop-color="#12E2FF" />
      <stop offset="1" stop-color="#12E2FF" stop-opacity="0" />
    </linearGradient>
    <linearGradient
      id="paint38_linear_1331_5362"
      x1="692.041"
      y1="32"
      x2="692.041"
      y2="122"
      gradientUnits="userSpaceOnUse"
    >
      <stop stop-color="#12E2FF" />
      <stop offset="1" stop-color="#12E2FF" stop-opacity="0" />
    </linearGradient>
    <linearGradient
      id="paint39_linear_1331_5362"
      x1="692.041"
      y1="32"
      x2="692.041"
      y2="122"
      gradientUnits="userSpaceOnUse"
    >
      <stop stop-color="#12E2FF" />
      <stop offset="1" stop-color="#12E2FF" stop-opacity="0" />
    </linearGradient>
    <linearGradient
      id="paint40_linear_1331_5362"
      x1="692.041"
      y1="32"
      x2="692.041"
      y2="122"
      gradientUnits="userSpaceOnUse"
    >
      <stop stop-color="#12E2FF" />
      <stop offset="1" stop-color="#12E2FF" stop-opacity="0" />
    </linearGradient>
    <linearGradient
      id="paint41_linear_1331_5362"
      x1="692.041"
      y1="32"
      x2="692.041"
      y2="122"
      gradientUnits="userSpaceOnUse"
    >
      <stop stop-color="#12E2FF" />
      <stop offset="1" stop-color="#12E2FF" stop-opacity="0" />
    </linearGradient>
    <linearGradient
      id="paint42_linear_1331_5362"
      x1="692.041"
      y1="32"
      x2="692.041"
      y2="122"
      gradientUnits="userSpaceOnUse"
    >
      <stop stop-color="#12E2FF" />
      <stop offset="1" stop-color="#12E2FF" stop-opacity="0" />
    </linearGradient>
    <linearGradient
      id="paint43_linear_1331_5362"
      x1="692.041"
      y1="32"
      x2="692.041"
      y2="122"
      gradientUnits="userSpaceOnUse"
    >
      <stop stop-color="#12E2FF" />
      <stop offset="1" stop-color="#12E2FF" stop-opacity="0" />
    </linearGradient>
    <linearGradient
      id="paint44_linear_1331_5362"
      x1="692.041"
      y1="32"
      x2="692.041"
      y2="122"
      gradientUnits="userSpaceOnUse"
    >
      <stop stop-color="#12E2FF" />
      <stop offset="1" stop-color="#12E2FF" stop-opacity="0" />
    </linearGradient>
    <linearGradient
      id="paint45_linear_1331_5362"
      x1="692.041"
      y1="32"
      x2="692.041"
      y2="122"
      gradientUnits="userSpaceOnUse"
    >
      <stop stop-color="#12E2FF" />
      <stop offset="1" stop-color="#12E2FF" stop-opacity="0" />
    </linearGradient>
  </defs>
</svg>